<mxfile host="app.diagrams.net" modified="2021-10-08T07:54:04.896Z" agent="5.0 (Macintosh; Intel Mac OS X 10_15_7) AppleWebKit/605.1.15 (KHTML, like Gecko) Version/15.0 Safari/605.1.15" etag="p7xPnLLFUjBkdxl9Pv1f" version="15.4.3" type="github" pages="2">
  <diagram id="HyMnKDu1nNonugBIedOy" name="Page-1">
    <mxGraphModel dx="749" dy="486" grid="0" gridSize="10" guides="1" tooltips="1" connect="1" arrows="1" fold="1" page="1" pageScale="1" pageWidth="827" pageHeight="1169" background="#FFFFFF" math="0" shadow="0">
      <root>
        <mxCell id="0" />
        <mxCell id="1" parent="0" />
        <mxCell id="YszvZYUEUgkkFarmt6zy-5" style="edgeStyle=orthogonalEdgeStyle;rounded=0;orthogonalLoop=1;jettySize=auto;html=1;entryX=0.5;entryY=0;entryDx=0;entryDy=0;fontSize=8;" parent="1" source="YszvZYUEUgkkFarmt6zy-1" target="YszvZYUEUgkkFarmt6zy-2" edge="1">
          <mxGeometry relative="1" as="geometry" />
        </mxCell>
        <mxCell id="YszvZYUEUgkkFarmt6zy-1" value="&lt;font style=&quot;font-size: 10px&quot;&gt;게임시작, 게임종료&amp;nbsp;&lt;br&gt;원하는기능을 입력&amp;nbsp;&lt;br&gt;문구 출력&lt;/font&gt;" style="rounded=1;whiteSpace=wrap;html=1;" parent="1" vertex="1">
          <mxGeometry x="290" y="20" width="110" height="50" as="geometry" />
        </mxCell>
        <mxCell id="YszvZYUEUgkkFarmt6zy-6" style="edgeStyle=orthogonalEdgeStyle;rounded=0;orthogonalLoop=1;jettySize=auto;html=1;entryX=0.5;entryY=0;entryDx=0;entryDy=0;fontSize=8;" parent="1" source="YszvZYUEUgkkFarmt6zy-2" target="YszvZYUEUgkkFarmt6zy-3" edge="1">
          <mxGeometry relative="1" as="geometry" />
        </mxCell>
        <mxCell id="YszvZYUEUgkkFarmt6zy-2" value="&lt;font style=&quot;font-size: 9px&quot;&gt;메뉴를 입력을 받는다&lt;/font&gt;" style="shape=parallelogram;perimeter=parallelogramPerimeter;whiteSpace=wrap;html=1;fixedSize=1;fillColor=#e1d5e7;strokeColor=#9673a6;" parent="1" vertex="1">
          <mxGeometry x="290" y="90" width="110" height="50" as="geometry" />
        </mxCell>
        <mxCell id="YszvZYUEUgkkFarmt6zy-7" value="네" style="edgeStyle=orthogonalEdgeStyle;rounded=0;orthogonalLoop=1;jettySize=auto;html=1;fontSize=8;" parent="1" source="YszvZYUEUgkkFarmt6zy-3" target="YszvZYUEUgkkFarmt6zy-4" edge="1">
          <mxGeometry relative="1" as="geometry" />
        </mxCell>
        <mxCell id="YszvZYUEUgkkFarmt6zy-8" style="edgeStyle=orthogonalEdgeStyle;rounded=0;orthogonalLoop=1;jettySize=auto;html=1;fontSize=8;" parent="1" source="YszvZYUEUgkkFarmt6zy-3" target="YszvZYUEUgkkFarmt6zy-2" edge="1">
          <mxGeometry relative="1" as="geometry">
            <mxPoint x="260" y="195" as="targetPoint" />
            <Array as="points">
              <mxPoint x="280" y="195" />
              <mxPoint x="280" y="115" />
            </Array>
          </mxGeometry>
        </mxCell>
        <mxCell id="YszvZYUEUgkkFarmt6zy-9" value="아니오" style="edgeLabel;html=1;align=center;verticalAlign=middle;resizable=0;points=[];fontSize=8;" parent="YszvZYUEUgkkFarmt6zy-8" vertex="1" connectable="0">
          <mxGeometry x="-0.0286" y="1" relative="1" as="geometry">
            <mxPoint as="offset" />
          </mxGeometry>
        </mxCell>
        <mxCell id="YszvZYUEUgkkFarmt6zy-3" value="&lt;font style=&quot;font-size: 7px&quot;&gt;입력받은 값이 숫자인가?&lt;/font&gt;" style="rhombus;whiteSpace=wrap;html=1;fontSize=10;" parent="1" vertex="1">
          <mxGeometry x="302.5" y="160" width="85" height="70" as="geometry" />
        </mxCell>
        <mxCell id="YszvZYUEUgkkFarmt6zy-11" style="edgeStyle=orthogonalEdgeStyle;rounded=0;orthogonalLoop=1;jettySize=auto;html=1;fontSize=8;entryX=1;entryY=0.25;entryDx=0;entryDy=0;" parent="1" source="YszvZYUEUgkkFarmt6zy-4" target="YszvZYUEUgkkFarmt6zy-2" edge="1">
          <mxGeometry relative="1" as="geometry">
            <mxPoint x="440" y="110" as="targetPoint" />
            <Array as="points">
              <mxPoint x="440" y="300" />
              <mxPoint x="440" y="104" />
            </Array>
          </mxGeometry>
        </mxCell>
        <mxCell id="YszvZYUEUgkkFarmt6zy-12" value="아니오" style="edgeLabel;html=1;align=center;verticalAlign=middle;resizable=0;points=[];fontSize=8;" parent="YszvZYUEUgkkFarmt6zy-11" vertex="1" connectable="0">
          <mxGeometry x="0.0785" y="-1" relative="1" as="geometry">
            <mxPoint as="offset" />
          </mxGeometry>
        </mxCell>
        <mxCell id="YszvZYUEUgkkFarmt6zy-13" style="edgeStyle=orthogonalEdgeStyle;rounded=0;orthogonalLoop=1;jettySize=auto;html=1;fontSize=8;" parent="1" source="YszvZYUEUgkkFarmt6zy-4" edge="1">
          <mxGeometry relative="1" as="geometry">
            <mxPoint x="345" y="370" as="targetPoint" />
          </mxGeometry>
        </mxCell>
        <mxCell id="YszvZYUEUgkkFarmt6zy-14" value="네" style="edgeLabel;html=1;align=center;verticalAlign=middle;resizable=0;points=[];fontSize=8;" parent="YszvZYUEUgkkFarmt6zy-13" vertex="1" connectable="0">
          <mxGeometry x="0.5667" y="-1" relative="1" as="geometry">
            <mxPoint as="offset" />
          </mxGeometry>
        </mxCell>
        <mxCell id="YszvZYUEUgkkFarmt6zy-4" value="&lt;font style=&quot;font-size: 8px&quot;&gt;입력받은 숫자가 0~3&lt;br&gt;사이의 숫자인가&lt;/font&gt;" style="rhombus;whiteSpace=wrap;html=1;fontSize=9;" parent="1" vertex="1">
          <mxGeometry x="305" y="260" width="80" height="80" as="geometry" />
        </mxCell>
        <mxCell id="YszvZYUEUgkkFarmt6zy-31" style="edgeStyle=orthogonalEdgeStyle;rounded=0;orthogonalLoop=1;jettySize=auto;html=1;fontSize=8;" parent="1" source="YszvZYUEUgkkFarmt6zy-15" edge="1">
          <mxGeometry relative="1" as="geometry">
            <mxPoint x="345" y="560" as="targetPoint" />
          </mxGeometry>
        </mxCell>
        <mxCell id="YszvZYUEUgkkFarmt6zy-15" value="숫자 3개를 띄어쓰기로 구분하여 &lt;br&gt;입력해주세요 &lt;br&gt;출력" style="rounded=0;whiteSpace=wrap;html=1;fontSize=8;" parent="1" vertex="1">
          <mxGeometry x="285" y="480" width="120" height="60" as="geometry" />
        </mxCell>
        <mxCell id="YszvZYUEUgkkFarmt6zy-18" value="아니오" style="edgeStyle=orthogonalEdgeStyle;rounded=0;orthogonalLoop=1;jettySize=auto;html=1;fontSize=8;" parent="1" source="YszvZYUEUgkkFarmt6zy-17" edge="1">
          <mxGeometry relative="1" as="geometry">
            <mxPoint x="260" y="410" as="targetPoint" />
          </mxGeometry>
        </mxCell>
        <mxCell id="YszvZYUEUgkkFarmt6zy-27" style="edgeStyle=orthogonalEdgeStyle;rounded=0;orthogonalLoop=1;jettySize=auto;html=1;fontSize=8;" parent="1" source="YszvZYUEUgkkFarmt6zy-17" target="YszvZYUEUgkkFarmt6zy-15" edge="1">
          <mxGeometry relative="1" as="geometry" />
        </mxCell>
        <mxCell id="YszvZYUEUgkkFarmt6zy-28" value="네" style="edgeLabel;html=1;align=center;verticalAlign=middle;resizable=0;points=[];fontSize=8;" parent="YszvZYUEUgkkFarmt6zy-27" vertex="1" connectable="0">
          <mxGeometry x="0.2" y="2" relative="1" as="geometry">
            <mxPoint as="offset" />
          </mxGeometry>
        </mxCell>
        <mxCell id="YszvZYUEUgkkFarmt6zy-17" value="입력받은 숫자가 &lt;br&gt;1인가?" style="rhombus;whiteSpace=wrap;html=1;fontSize=8;" parent="1" vertex="1">
          <mxGeometry x="305" y="370" width="80" height="80" as="geometry" />
        </mxCell>
        <mxCell id="YszvZYUEUgkkFarmt6zy-22" value="게임종료" style="rounded=1;whiteSpace=wrap;html=1;fontSize=8;" parent="1" vertex="1">
          <mxGeometry x="140" y="380" width="120" height="60" as="geometry" />
        </mxCell>
        <mxCell id="YszvZYUEUgkkFarmt6zy-32" style="edgeStyle=orthogonalEdgeStyle;rounded=0;orthogonalLoop=1;jettySize=auto;html=1;entryX=0.5;entryY=-0.075;entryDx=0;entryDy=0;entryPerimeter=0;fontSize=8;" parent="1" source="YszvZYUEUgkkFarmt6zy-29" target="YszvZYUEUgkkFarmt6zy-30" edge="1">
          <mxGeometry relative="1" as="geometry" />
        </mxCell>
        <mxCell id="YszvZYUEUgkkFarmt6zy-29" value="사용자 입력을 받는다&lt;br&gt;(숫자 3개)" style="shape=parallelogram;perimeter=parallelogramPerimeter;whiteSpace=wrap;html=1;fixedSize=1;fontSize=8;fillColor=#e1d5e7;strokeColor=#9673a6;" parent="1" vertex="1">
          <mxGeometry x="285" y="560" width="120" height="60" as="geometry" />
        </mxCell>
        <mxCell id="YszvZYUEUgkkFarmt6zy-33" style="edgeStyle=orthogonalEdgeStyle;rounded=0;orthogonalLoop=1;jettySize=auto;html=1;fontSize=8;" parent="1" source="YszvZYUEUgkkFarmt6zy-30" edge="1">
          <mxGeometry relative="1" as="geometry">
            <mxPoint x="345" y="750" as="targetPoint" />
          </mxGeometry>
        </mxCell>
        <mxCell id="YszvZYUEUgkkFarmt6zy-34" value="네" style="edgeLabel;html=1;align=center;verticalAlign=middle;resizable=0;points=[];fontSize=8;" parent="YszvZYUEUgkkFarmt6zy-33" vertex="1" connectable="0">
          <mxGeometry x="0.5667" relative="1" as="geometry">
            <mxPoint as="offset" />
          </mxGeometry>
        </mxCell>
        <mxCell id="YszvZYUEUgkkFarmt6zy-35" style="edgeStyle=orthogonalEdgeStyle;rounded=0;orthogonalLoop=1;jettySize=auto;html=1;fontSize=8;entryX=0.827;entryY=1;entryDx=0;entryDy=0;entryPerimeter=0;" parent="1" source="YszvZYUEUgkkFarmt6zy-30" target="YszvZYUEUgkkFarmt6zy-36" edge="1">
          <mxGeometry relative="1" as="geometry">
            <mxPoint x="220" y="640" as="targetPoint" />
          </mxGeometry>
        </mxCell>
        <mxCell id="YszvZYUEUgkkFarmt6zy-38" value="아니오" style="edgeLabel;html=1;align=center;verticalAlign=middle;resizable=0;points=[];fontSize=8;" parent="YszvZYUEUgkkFarmt6zy-35" vertex="1" connectable="0">
          <mxGeometry x="-0.3158" relative="1" as="geometry">
            <mxPoint as="offset" />
          </mxGeometry>
        </mxCell>
        <mxCell id="YszvZYUEUgkkFarmt6zy-30" value="&lt;font style=&quot;font-size: 7px&quot;&gt;문자열을 쪼갰을때 &lt;br&gt;3개로 나눠지는가?&lt;/font&gt;" style="rhombus;whiteSpace=wrap;html=1;fontSize=8;" parent="1" vertex="1">
          <mxGeometry x="305" y="650" width="80" height="80" as="geometry" />
        </mxCell>
        <mxCell id="YszvZYUEUgkkFarmt6zy-37" style="edgeStyle=orthogonalEdgeStyle;rounded=0;orthogonalLoop=1;jettySize=auto;html=1;entryX=0;entryY=0.5;entryDx=0;entryDy=0;fontSize=8;" parent="1" source="YszvZYUEUgkkFarmt6zy-36" target="YszvZYUEUgkkFarmt6zy-15" edge="1">
          <mxGeometry relative="1" as="geometry">
            <Array as="points">
              <mxPoint x="160" y="510" />
            </Array>
          </mxGeometry>
        </mxCell>
        <mxCell id="YszvZYUEUgkkFarmt6zy-36" value="입력이 잘못되었습니다&lt;br&gt;출력" style="rounded=0;whiteSpace=wrap;html=1;fontSize=8;" parent="1" vertex="1">
          <mxGeometry x="110" y="560" width="110" height="55" as="geometry" />
        </mxCell>
        <mxCell id="YszvZYUEUgkkFarmt6zy-41" style="edgeStyle=orthogonalEdgeStyle;rounded=0;orthogonalLoop=1;jettySize=auto;html=1;fontSize=8;" parent="1" source="YszvZYUEUgkkFarmt6zy-39" edge="1">
          <mxGeometry relative="1" as="geometry">
            <mxPoint x="180" y="615" as="targetPoint" />
            <Array as="points">
              <mxPoint x="180" y="790" />
              <mxPoint x="180" y="615" />
            </Array>
          </mxGeometry>
        </mxCell>
        <mxCell id="YszvZYUEUgkkFarmt6zy-43" value="아니오" style="edgeLabel;html=1;align=center;verticalAlign=middle;resizable=0;points=[];fontSize=8;" parent="YszvZYUEUgkkFarmt6zy-41" vertex="1" connectable="0">
          <mxGeometry x="-0.7264" y="-2" relative="1" as="geometry">
            <mxPoint as="offset" />
          </mxGeometry>
        </mxCell>
        <mxCell id="YszvZYUEUgkkFarmt6zy-42" value="예" style="edgeStyle=orthogonalEdgeStyle;rounded=0;orthogonalLoop=1;jettySize=auto;html=1;fontSize=8;" parent="1" source="YszvZYUEUgkkFarmt6zy-39" target="YszvZYUEUgkkFarmt6zy-44" edge="1">
          <mxGeometry relative="1" as="geometry">
            <mxPoint x="345" y="850" as="targetPoint" />
          </mxGeometry>
        </mxCell>
        <mxCell id="YszvZYUEUgkkFarmt6zy-39" value="쪼갠 문자열이 &lt;br&gt;모두 숫자인가" style="rhombus;whiteSpace=wrap;html=1;fontSize=8;" parent="1" vertex="1">
          <mxGeometry x="305" y="750" width="80" height="80" as="geometry" />
        </mxCell>
        <mxCell id="YszvZYUEUgkkFarmt6zy-46" style="edgeStyle=orthogonalEdgeStyle;rounded=0;orthogonalLoop=1;jettySize=auto;html=1;entryX=0.5;entryY=0;entryDx=0;entryDy=0;fontSize=8;" parent="1" source="YszvZYUEUgkkFarmt6zy-44" target="YszvZYUEUgkkFarmt6zy-45" edge="1">
          <mxGeometry relative="1" as="geometry" />
        </mxCell>
        <mxCell id="YszvZYUEUgkkFarmt6zy-50" value="예" style="edgeLabel;html=1;align=center;verticalAlign=middle;resizable=0;points=[];fontSize=8;" parent="YszvZYUEUgkkFarmt6zy-46" vertex="1" connectable="0">
          <mxGeometry x="0.6333" y="1" relative="1" as="geometry">
            <mxPoint as="offset" />
          </mxGeometry>
        </mxCell>
        <mxCell id="YszvZYUEUgkkFarmt6zy-47" style="edgeStyle=orthogonalEdgeStyle;rounded=0;orthogonalLoop=1;jettySize=auto;html=1;fontSize=8;entryX=0.355;entryY=1.018;entryDx=0;entryDy=0;entryPerimeter=0;" parent="1" source="YszvZYUEUgkkFarmt6zy-44" target="YszvZYUEUgkkFarmt6zy-36" edge="1">
          <mxGeometry relative="1" as="geometry">
            <mxPoint x="140" y="620" as="targetPoint" />
          </mxGeometry>
        </mxCell>
        <mxCell id="YszvZYUEUgkkFarmt6zy-49" value="아니오" style="edgeLabel;html=1;align=center;verticalAlign=middle;resizable=0;points=[];fontSize=8;" parent="YszvZYUEUgkkFarmt6zy-47" vertex="1" connectable="0">
          <mxGeometry x="-0.679" y="-3" relative="1" as="geometry">
            <mxPoint as="offset" />
          </mxGeometry>
        </mxCell>
        <mxCell id="YszvZYUEUgkkFarmt6zy-44" value="각 숫자가 &lt;br&gt;0~9 사이인가?" style="rhombus;whiteSpace=wrap;html=1;fontSize=8;" parent="1" vertex="1">
          <mxGeometry x="305" y="850" width="80" height="80" as="geometry" />
        </mxCell>
        <mxCell id="YszvZYUEUgkkFarmt6zy-48" style="edgeStyle=orthogonalEdgeStyle;rounded=0;orthogonalLoop=1;jettySize=auto;html=1;entryX=0.109;entryY=0.982;entryDx=0;entryDy=0;entryPerimeter=0;fontSize=8;" parent="1" source="YszvZYUEUgkkFarmt6zy-45" target="YszvZYUEUgkkFarmt6zy-36" edge="1">
          <mxGeometry relative="1" as="geometry" />
        </mxCell>
        <mxCell id="YszvZYUEUgkkFarmt6zy-51" value="예" style="edgeLabel;html=1;align=center;verticalAlign=middle;resizable=0;points=[];fontSize=8;" parent="YszvZYUEUgkkFarmt6zy-48" vertex="1" connectable="0">
          <mxGeometry x="-0.8052" y="3" relative="1" as="geometry">
            <mxPoint as="offset" />
          </mxGeometry>
        </mxCell>
        <mxCell id="YszvZYUEUgkkFarmt6zy-52" value="아니오" style="edgeStyle=orthogonalEdgeStyle;rounded=0;orthogonalLoop=1;jettySize=auto;html=1;fontSize=8;" parent="1" source="YszvZYUEUgkkFarmt6zy-45" edge="1">
          <mxGeometry relative="1" as="geometry">
            <mxPoint x="345" y="1070" as="targetPoint" />
          </mxGeometry>
        </mxCell>
        <mxCell id="YszvZYUEUgkkFarmt6zy-45" value="&lt;font style=&quot;font-size: 7px&quot;&gt;중복되는 숫자가 있는가?&lt;/font&gt;" style="rhombus;whiteSpace=wrap;html=1;fontSize=8;" parent="1" vertex="1">
          <mxGeometry x="305" y="950" width="80" height="80" as="geometry" />
        </mxCell>
        <mxCell id="YszvZYUEUgkkFarmt6zy-53" value="&lt;font style=&quot;font-size: 9px&quot;&gt;playInning의 playerNumber에 전달&amp;nbsp;&lt;/font&gt;" style="rounded=0;whiteSpace=wrap;html=1;fontSize=8;" parent="1" vertex="1">
          <mxGeometry x="265" y="1080" width="160" height="60" as="geometry" />
        </mxCell>
      </root>
    </mxGraphModel>
  </diagram>
  <diagram id="elWx56-caMtWOEg2Q4Yv" name="Page-2">
    <mxGraphModel dx="797" dy="382" grid="1" gridSize="10" guides="1" tooltips="1" connect="1" arrows="1" fold="1" page="1" pageScale="1" pageWidth="827" pageHeight="1169" math="0" shadow="0">
      <root>
        <mxCell id="4I10ZkslNSFytICrqb_t-0" />
        <mxCell id="4I10ZkslNSFytICrqb_t-1" parent="4I10ZkslNSFytICrqb_t-0" />
      </root>
    </mxGraphModel>
  </diagram>
</mxfile>
